<svg width="93" height="53" xmlns="http://www.w3.org/2000/svg">

 <g>
  <title>background</title>
  <rect fill="none" id="canvas_background" height="402" width="582" y="-1" x="-1"/>
 </g>
 <g>
  <title>Layer 1</title>
  <path id="svg_1" fill="#0d6efd" d="m1.9371,46.4829c0,0.6013 0.05098,1.1563 0.15293,1.6651c0.10196,0.5088 0.30586,0.925 0.56074,1.2488c0.25489,0.3238 0.61172,0.6013 1.07051,0.7863c0.45879,0.185 1.01953,0.2775 1.68222,0.2775c1.01953,0 1.88613,-0.2313 2.49785,-0.6475c0.66269,-0.4163 0.96855,-1.1563 0.96855,-2.1276c0,-0.555 -0.05098,-0.9713 -0.20391,-1.3413c-0.15292,-0.37 -0.30585,-0.6475 -0.56074,-0.8788c-0.25488,-0.2313 -0.56074,-0.4163 -0.91757,-0.6013c-0.35684,-0.1387 -0.76465,-0.3237 -1.22344,-0.5087l-2.70175,-0.9251c-0.40781,-0.1387 -0.81562,-0.3237 -1.17246,-0.555c-0.35683,-0.2313 -0.66269,-0.5088 -0.91757,-0.8788c-0.25488,-0.3237 -0.45879,-0.74 -0.61172,-1.2488c-0.15293,-0.4625 -0.2039,-1.0638 -0.2039,-1.7113c0,-0.6475 0.10195,-1.2488 0.35683,-1.8038c0.25488,-0.5088 0.56074,-0.9713 1.01953,-1.3413c0.45879,-0.37 0.96855,-0.6475 1.58027,-0.8325c0.61172,-0.185 1.27441,-0.2776 2.03906,-0.2776c1.58027,0 2.85468,0.4163 3.72128,1.2026c0.91757,0.7863 1.37639,1.9426 1.47829,3.5151l-2.03904,0c0,-0.925 -0.25488,-1.665 -0.76464,-2.2201c-0.50977,-0.555 -1.27441,-0.8325 -2.29394,-0.8325c-0.56074,0 -1.01953,0.0925 -1.42734,0.2313c-0.40781,0.1387 -0.71367,0.3237 -0.91758,0.555c-0.25488,0.2313 -0.40781,0.5088 -0.50976,0.8325c-0.10195,0.3238 -0.15293,0.6475 -0.15293,0.9713c0,0.7863 0.10195,1.3413 0.35683,1.7113c0.15293,0.4625 0.56074,0.7401 1.17246,0.9251l2.90566,0.9712c1.47832,0.5088 2.49784,1.1101 3.16058,1.8964c0.6117,0.7862 0.9685,1.7113 0.9685,2.8213c0,1.5726 -0.5098,2.7751 -1.47831,3.5614c-1.01953,0.7863 -2.39589,1.1563 -4.12909,1.1563c-1.78417,0 -3.10956,-0.5088 -4.02714,-1.4801c-0.91757,-0.9712 -1.37636,-2.3588 -1.37636,-4.1626l1.9371,0l0,0.0462z"/>
  <path id="svg_2" fill="#0d6efd" d="m20.4412,52.1719c-1.3254,0 -2.3959,-0.2313 -3.2115,-0.6938c-0.8156,-0.4625 -1.4274,-1.1101 -1.8352,-1.9426c-0.4078,-0.7863 -0.6627,-1.7576 -0.8156,-2.7751c-0.1019,-1.0638 -0.2039,-2.1276 -0.2039,-3.2839c0,-0.9712 0.051,-1.9425 0.2039,-2.9601c0.102,-1.0175 0.4078,-1.9425 0.8156,-2.7751c0.4078,-0.8325 1.0196,-1.5263 1.8352,-2.0813c0.8156,-0.555 1.8861,-0.7863 3.2115,-0.7863c1.3254,0 2.3959,0.2775 3.2115,0.7863c0.8156,0.555 1.4274,1.2488 1.8352,2.0813c0.4078,0.8326 0.7136,1.7576 0.8156,2.7751c0.1019,1.0176 0.2039,1.9889 0.2039,2.9601c0,1.1563 -0.051,2.2664 -0.2039,3.2839c-0.102,1.0638 -0.4078,1.9888 -0.8156,2.7751c-0.4078,0.7863 -1.0196,1.4338 -1.8352,1.9426c-0.8156,0.4163 -1.8861,0.6938 -3.2115,0.6938zm3.9252,-9.0191c0,-0.9251 -0.051,-1.8038 -0.1529,-2.5901c-0.102,-0.8326 -0.3059,-1.5263 -0.6118,-2.1276c-0.3058,-0.6013 -0.7136,-1.0638 -1.2234,-1.4338c-0.5098,-0.3238 -1.1725,-0.5088 -1.9881,-0.5088c-0.7646,0 -1.4273,0.185 -1.9371,0.5088c-0.5097,0.3238 -0.9176,0.8325 -1.1724,1.4338c-0.3059,0.6013 -0.5098,1.295 -0.6118,2.1276c-0.1019,0.7863 -0.1529,1.665 -0.1529,2.5901c0,1.2025 0.051,2.2663 0.1529,3.1913c0.102,0.9251 0.2549,1.7114 0.5608,2.3126c0.2549,0.6013 0.6627,1.0638 1.1724,1.3876c0.5098,0.3237 1.1725,0.4625 2.0391,0.4625c0.8156,0 1.5293,-0.1388 2.0391,-0.4625c0.5097,-0.3238 0.9175,-0.7863 1.2234,-1.3876c0.3058,-0.6012 0.4588,-1.3875 0.5607,-2.3126c0.051,-0.925 0.102,-1.9888 0.102,-3.1913z"/>
  <path id="svg_3" fill="#0d6efd" d="m39.1502,35.1512l0,1.6651l-6.576,0l0,5.4115l6.1172,0l0,1.665l-6.1172,0l0,7.9091l-2.039,0l0,-16.6507l8.615,0z"/>
  <path id="svg_4" fill="#0d6efd" d="m47.4088,51.7556l-2.0391,0l0,-14.9393l-4.7408,0l0,-1.6651l11.5207,0l0,1.6651l-4.7408,0l0,14.9393z"/>
  <path id="svg_5" fill="#0d6efd" d="m57.1953,50.0906l7.4935,0l0,1.665l-9.5326,0l0,-16.6044l2.0391,0l0,14.9394z"/>
  <path id="svg_6" fill="#0d6efd" d="m77.2305,35.1512l0,1.6651l-7.1368,0l0,5.4115l6.678,0l0,1.665l-6.678,0l0,6.244l7.1877,0l0,1.6651l-9.2267,0l0,-16.6507l9.1758,0z"/>
  <path id="svg_7" fill="#0d6efd" d="m82.1225,35.1512l3.8232,6.4753l3.8232,-6.4753l2.243,0l-4.8938,8.0941l4.9957,8.5566l-2.2939,0l-3.8742,-6.9378l-3.9762,6.9378l-2.2429,0l5.0466,-8.5566l-4.9447,-8.0941l2.294,0z"/>
  <path id="svg_8" fill="#0d6efd" d="m17.4253,18.4784c0,0.0459 -0.0512,0.0459 -0.0512,0.0917c0,0 -0.5126,0.5961 -0.7176,0.8712c-0.1025,0.1376 -0.1537,0.2293 -0.2562,0.3668c-0.3076,0.3669 -0.5638,0.7337 -0.8713,1.1464c-0.3588,0.5043 -0.6663,1.0087 -1.1789,1.3755c-0.4612,0.321 -1.0763,0.5502 -1.5375,0.8254c-0.2563,0.1375 -0.5126,0.3209 -0.7688,0.5043c-0.1538,0.0917 -0.3076,0.1834 -0.4613,0.321c-0.3075,0.2293 -0.5638,0.4585 -0.8713,0.6419c-0.3075,0.2293 -0.6663,0.4585 -1.02507,0.6878c-0.20501,0.1376 -0.56378,0.3668 -0.9738,0.5502c-0.10251,0.0459 -0.15376,0.0917 -0.25627,0.0917c-0.46127,0.1376 -0.87129,0.2752 -1.33257,0.4586c-0.05125,0 -0.15376,0 -0.20501,0c-0.35877,0.1375 -0.66629,0.2292 -0.71754,0.2292c-0.10251,0.0917 4.40776,-3.8516 4.40776,-3.8516l5.5865,-5.6856c0.1025,-0.0917 0.1538,-0.2293 0.2563,-0.321c0.1538,-0.1376 0.3075,-0.2751 0.4613,-0.3668l0.0512,0c0,0 -0.9225,1.238 -1.3838,1.8341c-0.1025,0.1375 -0.205,0.2751 -0.3075,0.4126c-0.3075,0.4586 -0.615,0.9629 -0.8201,1.4673c0.5638,-0.1375 1.1276,-0.1834 1.5889,-0.5502c0.3588,-0.321 0.82,-0.7795 1.3838,-1.1005zm2.9727,-5.6856c0.205,-0.1376 0.4612,-0.1834 0.6663,-0.321c0.3075,-0.2293 0.3587,-0.7336 0.4612,-1.1005c0.2563,-0.6419 0.5638,-1.2838 0.9738,-1.83405l0.0513,-0.04585c0,-0.04585 -0.0513,-0.04585 -0.0513,-0.04585c-1.5375,1.55895 -2.8189,3.34725 -4.1002,5.04375c0,0 0,0 0,0.0458c-0.0512,0.0459 -0.0512,0.0459 -0.1025,0.0917c0,0.0459 0.0513,0.0918 0.0513,0.0459c0.3587,-0.3668 0.6662,-0.7336 1.025,-1.0546c0,0 0,0 0.0513,0c0.0512,-0.0459 0.1025,-0.1376 0.205,-0.1834c0.2562,-0.2751 0.5125,-0.5044 0.7688,-0.6419zm13.7357,-3.07214c0.0513,0 0.0513,-0.04585 0,0c0,-0.27511 -0.0512,-0.36681 -0.2562,-0.50437c-0.2563,-0.18341 -0.1025,0.0917 -0.5126,-0.27511c-0.1025,-0.09171 -0.205,-0.27512 -0.3075,-0.36682c-0.41,-0.41267 -1.23,-0.59608 -1.8963,-0.64193c0,0 -0.0513,-0.04585 -0.1025,-0.04585c-0.0513,0 -0.0513,0 -0.1025,0c-0.4101,-0.04586 -0.8201,0 -1.2301,0.0917l-0.0513,0c-0.0512,0 -0.1025,0.04585 -0.1025,0.09171c-0.2562,0.27511 -0.4612,0.64193 -0.6663,0.96289c-0.2562,0.36682 -0.5637,0.68778 -0.82,1.00872c0.1025,-0.27508 0.2563,-0.59605 0.3588,-0.87116c0.0512,-0.18341 0.1537,-0.36682 0.205,-0.55023l0,-0.04585c0.0512,-0.18341 0.1537,-0.36682 0.0512,-0.45852c-0.0512,-0.22926 -0.2562,-0.32097 -0.41,-0.45852c-0.3588,-0.22927 -0.615,-0.45853 -0.9225,-0.73364c-0.1025,-0.0917 -0.3076,-0.32096 -0.5126,-0.27511c-0.2562,0.04585 -0.1537,0.41267 -0.41,0.45852l0,-0.04585c-0.1025,-0.27512 -0.3075,-0.45852 -0.5125,-0.64193c0,0 -0.1538,0.0917 -0.205,0.0917c-0.205,0.41267 -0.0513,1.0546 -0.0513,1.46727c0,0.55023 -0.0512,1.10045 -0.1025,1.69653c-0.3588,0.09171 -0.7175,0.18341 -0.7175,0.55019c0,0.2752 0.0512,0.5044 0.1025,0.7795c0,0.0459 0,0.0917 0,0.1376c0,0.0458 0,0.0917 0,0.1375c-0.1025,0.321 -0.4613,0.5961 -0.5126,0.9171c-0.1025,0.2751 -0.1537,0.5502 -0.2562,0.7795c-0.5638,0.917 -0.9226,1.8799 -1.7939,2.7052c-0.8713,0.8712 -1.9988,1.5132 -2.9214,2.2927c0,0 0,0.0458 0.0513,0.0458c0,0 0,0.0459 0.0512,0.0459l2.3064,-0.2293l3.8952,-2.0175l5.0228,-2.6594l3.3314,-3.43894zm50.7916,16.59854c-0.1025,-0.0459 -0.205,-0.0917 -0.2563,-0.1835c0,0 -0.0512,0 -0.0512,-0.0458c-0.3588,-0.2751 -0.8201,-0.1376 -1.2301,-0.1834c-0.205,0 -0.4613,-0.0917 -0.6663,-0.1834c-0.5638,-0.2293 -1.1276,-0.5961 -1.6401,-0.8712c-0.82,-0.5044 -1.6401,-0.9629 -2.5114,-1.3297c0.2563,0.1834 0.5638,0.3668 0.8201,0.596c0.9738,0.6878 2.1013,1.3756 2.9726,2.2468c0.1025,0.0459 0.205,0.1376 0.2563,0.2293c0,0 0.0513,0 0.0513,0.0458c0.0512,0 0.0512,0.0459 0,0.0917c-0.5638,0.0459 -1.2301,0.0917 -1.8451,0.0459c-0.1538,0 -0.3076,0 -0.4613,0c-0.5638,0.0458 -1.1276,0.0917 -1.6914,0.0458c-0.5125,-0.0458 -0.9225,-0.1834 -1.3838,-0.3209c-0.615,-0.2293 -1.1276,-0.2751 -1.7938,-0.2293c-0.9738,0.0459 -1.8451,0.1376 -2.7677,-0.321c-0.3588,-0.1834 -0.6663,-0.3668 -0.9738,-0.596c-0.5125,-0.2293 -1.0763,-0.4586 -1.6401,-0.5503c-0.7688,-0.0917 -1.3326,0.2293 -2.0501,0.321c-0.1025,0 -0.205,0 -0.3075,0c-0.5125,0.0917 -0.9738,0.0459 -1.5376,0.0459c-0.0513,0 -0.0512,0 -0.1025,0c-0.3075,0.0458 -0.615,0.0917 -0.9738,0.1375c-0.1538,0.0459 -0.3075,0.0917 -0.4613,0.1376c-0.205,0.0917 -0.41,0.1834 -0.6663,0.2292c-0.3075,0.0459 -0.6663,0.0459 -0.9738,0.0459c-0.5125,0.0458 -0.9738,0.1375 -1.4863,0.2292c-0.0513,0 -0.1025,-0.0458 -0.0513,-0.0917c0.5126,-0.6877 1.2301,-1.238 1.9989,-1.7424c0.4613,-0.2751 0.8713,-0.5502 1.2813,-0.917c0.205,-0.1834 0.4613,-0.3668 0.7176,-0.5044l0.0512,-0.0458c-1.025,0.2292 -1.9988,0.5044 -2.9726,0.9629c-0.9226,0.4585 -1.7939,0.917 -2.7677,1.3297c-0.9225,0.3668 -1.7938,0.8712 -2.7164,1.238c-0.3075,0.1376 -0.615,0.2293 -0.9225,0.2751c0,0 0,0 -0.0513,0c-0.0513,0 -0.0513,0 -0.1025,0c-0.615,0.1376 -3.3827,0.8254 -3.5877,0.8712c-0.1025,0.0459 7.2779,-7.0154 7.2779,-7.0154l4.3052,-6.6027l2.0502,-3.1638c0,0 -2.3064,1.2839 -2.3577,1.3756c-0.0512,0.0458 1.4863,-1.7424 2.5114,-2.88872c0.205,-0.27511 0.5638,-0.77949 0.7688,-0.96289c0.0512,0 0.0513,0 0.0513,0l0.0512,0c0.1025,0.0917 0.3075,0.27511 0.615,0.55022l7.2267,6.05249l7.0216,8.4827c0.5125,0.5043 1.0251,0.9628 1.5376,1.4672c0.0513,0.0459 0.1025,0.0917 0.1538,0.1376c0.4612,0.4127 1.1275,0.917 1.3838,1.4673c0,0.0917 -0.0513,0.1375 -0.1025,0.0917zm-17.5797,-13.5264l-0.4101,-0.7337c0,0 -1.3838,1.5131 -1.5375,1.8341c-0.1538,0.321 -0.4613,1.238 -0.4613,1.238c0,0 1.1276,-0.5502 1.6401,-0.9629c0.4613,-0.5043 0.7688,-1.3755 0.7688,-1.3755zm-14.7608,2.0633c1.025,-0.8253 2.1526,-1.6965 3.1264,-2.6136c0.4613,-0.3209 0.9225,-1.3297 1.2813,-1.8341c0.0513,-0.0458 0,-0.0458 0,-0.0917c0,0 0,0 0,-0.0458c-0.205,-0.41268 -3.639,-4.35597 -4.3565,-5.04375c-0.82,-0.77949 -4.4077,-4.53937 -4.869,-5.1813c0,-0.04585 -0.0513,-0.04585 -0.1025,-0.04585l-0.0513,0.04585c-0.0512,0.04585 -3.5877,3.66818 -4.3052,4.40181c-0.5125,0.50438 -3.5877,3.02625 -4.1002,3.53062c-0.1538,0.13756 -0.3076,0.27511 -0.4613,0.41267c-0.3588,0.32097 -0.7688,0.59608 -1.0251,0.9629c0,0 0,0.04585 0.0513,0.04585c0.0512,-0.04585 0.1537,-0.09171 0.205,-0.09171c0.205,-0.0917 0.41,-0.13755 0.615,-0.22926c1.1788,-0.36681 2.4089,-0.82534 3.5365,-1.32971c1.1275,-0.41267 2.0501,-1.19216 3.0239,-1.83409c0,0 0,0 0.0512,-0.04585c0,0 0,0 0,0.04585c-0.0512,0.22926 -0.1025,0.45852 -0.205,0.68779c-0.205,0.50437 -0.615,0.87119 -0.82,1.37556c0,0 0,0.04585 0.0512,0.04585c0,0 0.0513,0.04586 0.0513,0c0.5638,-0.22926 1.2301,-0.41267 1.7426,-0.77948c0.0512,0 0.0512,-0.04586 0.1025,-0.04586c0.1025,-0.04585 0.1538,-0.0917 0.2563,-0.13755c0.205,-0.13756 0.3587,-0.22926 0.5125,-0.41267c0.0512,-0.04585 0.1025,-0.13756 0.1537,-0.18341c0.1538,-0.18341 0.3076,-0.41267 0.4613,-0.64193c0.2563,-0.27512 0.5126,-0.55023 0.7688,-0.82534c0.1025,-0.09171 0.205,-0.13756 0.2563,-0.22926c-0.2563,0.22926 -1.7426,4.26425 -1.7426,4.26425l-5.7916,6.00662l-13.1207,11.188l1.8451,-0.9171c0.7688,-0.0917 1.4351,-0.5044 2.0501,-0.917c0.41,-0.2752 0.82,-0.5503 1.3326,-0.7795c0.5125,-0.2293 1.0763,-0.2751 1.6401,-0.4127c0.41,-0.0917 0.7688,-0.3668 1.1275,-0.5961c0.4613,-0.2751 0.9226,-0.5502 1.4351,-0.8253c0.9226,-0.5044 1.8451,-0.8712 2.8189,-1.2839c0.0513,0 0.0513,-0.0458 0.1025,-0.0458c-0.3587,0.4126 -0.7175,0.8253 -0.7688,1.3297c-0.1025,0.6419 -0.4612,1.4214 -0.7688,2.0175c0,0.0458 0,0.0458 0.0513,0.0458c0.0512,-0.0458 2.6139,-1.6048 3.5877,-2.6135c0.7688,-0.7337 1.3326,-1.6049 2.0501,-2.3844l0.0513,-0.0458c0.1025,-0.0917 0.205,-0.1834 0.3075,-0.2751c0.0512,-0.0459 0.1025,-0.0917 0.1537,-0.1376c0.1025,-0.0917 0.1538,-0.1375 0.2563,-0.2292c0.0512,-0.0459 0.1025,-0.0917 0.1538,-0.1376c0.5125,-0.3668 1.0763,-0.7336 1.4863,-1.1921c0.3588,-0.4127 0.5638,-0.9171 0.7688,-1.3756c0.2562,-0.6878 0.615,-1.2839 1.23,-1.7424c0.4613,-0.321 0.9226,-0.5961 1.2301,-1.0087c-0.1025,1.2838 -1.025,2.3843 -1.5888,3.5306c-0.5126,1.0087 -0.8713,2.0633 -1.5889,3.0262c0,0.0459 0,0.0459 0.0513,0.0459c0,0 0,0 0.0512,-0.0459c0.4101,-0.3209 0.8713,-0.6419 1.2814,-0.9629c0.7688,-0.4585 1.435,-1.0546 2.1013,-1.6048c0.7176,-0.5961 1.4864,-1.238 2.2552,-1.8341zm1.025,4.4477c0,0.0458 0.0513,0.0458 0.0513,0.0458l3.3314,-0.917l3.8952,-5.3189l-0.7175,0.4127c-0.2563,0.0917 -0.5638,0.2293 -0.8201,0.3668c0.2563,-0.2292 0.6663,-0.5961 0.6663,-0.8253c0.0513,-0.1834 0.0513,-0.1834 -0.1537,-0.321c-0.1538,-0.1375 -0.3076,-0.2293 -0.5126,-0.2751c-0.2562,-0.0917 -0.6663,-0.0917 -0.82,-0.2751c-0.0513,-0.0917 -0.0513,-0.4585 -0.1025,-0.5502c-0.0513,-0.1835 -0.2563,-0.4586 -0.3075,-0.4586l-0.0513,0c-0.0512,0.0459 -0.1025,0.0917 -0.1025,0.0917c-0.5638,0.8254 -1.0763,1.6507 -1.6913,2.4302c-0.7176,0.917 -1.6401,1.6507 -2.4602,2.5219c-0.3075,0.3209 -0.5125,0.6878 -0.7688,1.0087c-0.3587,0.5044 -0.82,0.9171 -1.2813,1.3297c-0.8713,0.7795 -1.8451,1.4673 -2.7164,2.2009c-0.0512,0.0459 -0.0512,0.1376 0.0513,0.0917c0.7688,-0.1375 1.4863,-0.4585 2.1013,-0.8711c0.6151,-0.4127 1.4351,-1.0546 2.2552,-1.1005c0.0512,0.1376 0.1537,0.2293 0.1537,0.4127z"/>
 </g>
</svg>